<svg id="Layer_1" data-name="Layer 1" xmlns="http://www.w3.org/2000/svg" xmlns:xlink="http://www.w3.org/1999/xlink" viewBox="0 0 166.16 166.17"><defs><style>.cls-1{fill:none;}.cls-2{clip-path:url(#clip-path);}.cls-3{fill:#00aeef;}.cls-4{fill:#f7941d;}</style><clipPath id="clip-path" transform="translate(-126.34 -57.98)"><rect class="cls-1" x="151.23" y="106.69" width="67.48" height="66.94"/></clipPath></defs><g class="cls-2"><polyline class="cls-3" points="77.98 122.22 35.35 82.04 77.98 41.86 83.7 47.93 47.52 82.04 83.7 116.15 77.98 122.22"/></g><polyline class="cls-3" points="32.86 115.64 32.86 0 166.16 0 166.16 166.16 107.53 166.16 107.53 157.82 157.82 157.82 157.82 8.35 41.21 8.35 41.21 115.64 32.86 115.64"/><path class="cls-4" d="M220.1,145H244c8,0,12.61-6.68,12.6-15S252,115,244,115h-23.7V224.15h-94V58h19.13v8.35H134.7V215.8H212V106.65h32c14.37,0,20.93,12.48,21,23.32s-6.55,23.34-21,23.34H220.1V145" transform="translate(-126.34 -57.98)"/></svg>